<svg width="38" height="23" viewBox="0 0 38 23" fill="none" xmlns="http://www.w3.org/2000/svg">
<path d="M27.375 2.23063V18.5125H38.0003V22.3531H22.8213V2.24937C22.8213 1.6528 23.0564 1.08066 23.475 0.658826C23.8936 0.236987 24.4613 0 25.0532 0L25.1617 0C25.7487 0 26.3117 0.235012 26.7267 0.653335C27.1418 1.07166 27.375 1.63903 27.375 2.23063Z" fill="#142359"/>
<path d="M19.5932 22.2709L19.5281 22.3531L3.99263 22.3136C2.41686 22.3136 1.25028 21.6617 0.782199 20.5234L0.749134 20.4912V20.437C0.699056 20.3062 0.658648 20.1718 0.628239 20.035C0.21155 18.6119 -2.59781e-05 17.1357 2.39242e-09 15.6519C2.39242e-09 7.10324 6.9003 0.147888 15.3836 0.147888C15.8269 0.147888 16.2764 0.167674 16.7186 0.207247C17.264 0.259725 17.7706 0.514797 18.1398 0.922849C18.509 1.3309 18.7143 1.86276 18.716 2.41496C18.716 2.96734 18.4982 3.4971 18.1107 3.88769C17.7231 4.27828 17.1975 4.49771 16.6494 4.49771C16.5831 4.49769 16.5169 4.49422 16.451 4.4873C16.0509 4.44932 15.6491 4.43263 15.2472 4.43731C9.25413 4.51125 4.32534 9.48486 4.25715 15.5228C4.24646 16.423 4.3436 17.3213 4.54647 18.1981H17.537C18.5961 18.1981 19.5178 18.7521 19.9435 19.6456C20.3558 20.5016 20.2204 21.4825 19.5932 22.2709Z" fill="#142359"/>
</svg>
