<svg width="180" height="30" viewBox="0 0 180 30" fill="none" xmlns="http://www.w3.org/2000/svg">
<path d="M26.1592 3.31642V28.8175H31.5144V3.31642C31.5181 2.68097 31.2979 2.06452 30.8924 1.57524C30.4869 1.08596 29.9221 0.755113 29.297 0.640747H28.3766C27.7517 0.755351 27.187 1.08627 26.7815 1.57549C26.3761 2.06472 26.1558 2.68104 26.1592 3.31642Z" fill="#142359"/>
<path d="M28.7079 0.598022C28.5534 0.599041 28.3992 0.613333 28.2471 0.64074H29.1674C29.0158 0.613394 28.862 0.599102 28.7079 0.598022V0.598022Z" fill="#142359"/>
<path d="M43.8533 7.39014C47.2388 7.39014 49.8376 8.47663 51.6499 10.6496C53.2283 12.5128 54.0175 14.9964 54.0175 18.1006C54.0175 21.6707 52.9953 24.4129 50.9509 26.3269C49.168 27.983 46.8021 28.8132 43.8533 28.8175C40.4644 28.8175 37.8646 27.7435 36.0541 25.5956C34.4749 23.7082 33.6857 21.2121 33.6865 18.1071C33.6865 14.5628 34.7083 11.8332 36.7518 9.91824C38.5365 8.23284 40.9036 7.39014 43.8533 7.39014ZM43.8533 11.6968C42.4052 11.6968 41.2402 12.2854 40.3582 13.4625C39.4763 14.6396 39.0374 16.1856 39.0417 18.1006C39.0417 20.1717 39.5332 21.8015 40.5161 22.9898C40.9237 23.4757 41.4351 23.8639 42.0127 24.1258C42.5903 24.3877 43.2193 24.5166 43.8533 24.503C45.3014 24.503 46.472 23.9145 47.3652 22.7374C48.2584 21.5603 48.705 20.0147 48.705 18.1006C48.705 16.057 48.2001 14.4398 47.1904 13.2489C46.7889 12.7534 46.2796 12.3561 45.7013 12.0871C45.123 11.8182 44.491 11.6847 43.8533 11.6968Z" fill="#142359"/>
<path d="M74.3661 28.6272H69.0497V25.7172C67.6016 27.942 65.5452 29.0543 62.8803 29.0543C60.5261 29.0543 58.741 28.3558 57.525 26.9586C56.4895 25.7435 55.9717 24.0749 55.9717 21.9529V10.8593C55.9717 10.1171 56.2663 9.40534 56.7908 8.88032C57.3154 8.35531 58.0269 8.06001 58.769 8.05933C59.1047 8.05916 59.4371 8.12513 59.7473 8.25346C60.0575 8.3818 60.3393 8.57 60.5767 8.80729C60.8141 9.04459 61.0025 9.32634 61.131 9.63645C61.2595 9.94655 61.3256 10.2789 61.3256 10.6146V20.8267C61.3256 23.2845 62.4639 24.5133 64.7404 24.5133C66.0349 24.5133 67.0761 24.1513 67.864 23.4273C68.6519 22.7032 69.0463 21.7199 69.0471 20.4772V10.8088C69.0471 10.0796 69.3368 9.38025 69.8524 8.86462C70.368 8.349 71.0674 8.05933 71.7966 8.05933C72.1338 8.05933 72.4677 8.12577 72.7792 8.25485C73.0907 8.38393 73.3738 8.57312 73.6121 8.81162C73.8505 9.05012 74.0396 9.33325 74.1685 9.64483C74.2974 9.95642 74.3637 10.2904 74.3635 10.6276L74.3661 28.6272Z" fill="#142359"/>
<path d="M93.388 0.84137C92.6777 0.84137 91.9964 1.12354 91.4942 1.62581C90.9919 2.12808 90.7097 2.80931 90.7097 3.51963V10.5098C89.4429 8.59223 87.5551 7.63346 85.0464 7.63346C82.6655 7.63346 80.6867 8.49989 79.11 10.2328C77.2977 12.2245 76.3916 14.9429 76.3916 18.3879C76.3916 21.2849 77.1031 23.7039 78.5262 25.6447C80.1814 27.9213 82.3673 29.0595 85.084 29.0595C87.5944 29.0595 89.4701 28.1534 90.711 26.3411V28.6311H96.0663V3.51833C96.0663 3.16668 95.997 2.81847 95.8624 2.49361C95.7277 2.16874 95.5305 1.87357 95.2817 1.62498C95.033 1.37638 94.7378 1.17922 94.4128 1.04477C94.0879 0.910316 93.7396 0.8412 93.388 0.84137ZM89.5266 22.8836C88.7111 24.0227 87.6181 24.5919 86.2477 24.591C84.8773 24.5902 83.7865 24.0141 82.9753 22.8629C82.1598 21.7125 81.752 20.2058 81.752 18.3426C81.752 16.4535 82.1658 14.9269 82.9934 13.7628C83.821 12.5986 84.9079 12.0165 86.2542 12.0165C87.5996 12.0165 88.686 12.5921 89.5136 13.7434C90.3412 14.8946 90.755 16.4277 90.755 18.3426C90.7507 20.2343 90.3412 21.7479 89.5266 22.8836Z" fill="#142359"/>
<path d="M105.008 3.65168V23.8907H118.314V28.6634H99.3037V3.68016C99.3037 2.93859 99.5983 2.22741 100.123 1.70304C100.647 1.17868 101.358 0.884099 102.1 0.884099H102.229C102.965 0.882724 103.671 1.17349 104.192 1.69248C104.713 2.21146 105.007 2.91618 105.008 3.65168Z" fill="#142359"/>
<path d="M138.408 28.6635H132.834C132.446 28.1724 132.239 27.4738 132.213 26.5677C130.79 28.2505 128.718 29.0915 125.999 29.0906C124.006 29.0906 122.401 28.4827 121.186 27.2667C120.203 26.2829 119.711 24.9246 119.712 23.1917C119.712 20.6028 120.747 18.7659 122.819 17.6812C123.698 17.2152 125.444 16.7496 128.057 16.2844L132.249 15.5078L132.21 14.0334C132.184 12.6621 131.149 11.9764 129.103 11.9764C127.785 11.9764 126.86 12.1771 126.328 12.5784C126.07 12.7805 125.864 13.0409 125.726 13.3382C125.518 13.7663 125.193 14.1274 124.79 14.3806C124.387 14.6339 123.921 14.7692 123.445 14.7712C121.524 14.7712 120.288 12.6755 121.273 11.0263C122.609 8.78859 125.18 7.66974 128.987 7.66974C132.039 7.66974 134.24 8.21298 135.589 9.29948C136.804 10.3351 137.412 11.9001 137.413 13.9945V25.4817C137.415 27.8156 138.408 28.6635 138.408 28.6635ZM132.229 19.6022C132.232 19.4991 132.211 19.3969 132.169 19.3031C132.126 19.2094 132.062 19.1267 131.982 19.0613C131.903 18.996 131.809 18.9498 131.709 18.9262C131.608 18.9026 131.504 18.9022 131.404 18.9252L128.332 19.6268C127.219 19.8857 126.392 20.2606 125.849 20.7517C125.598 20.9834 125.399 21.2659 125.265 21.5803C125.131 21.8947 125.065 22.2339 125.072 22.5756C125.072 24.0513 126.029 24.7887 127.943 24.7878C130.712 24.7878 132.136 23.2746 132.215 20.2481L132.229 19.6022Z" fill="#142359"/>
<path d="M142.566 8.09556C143.253 8.09556 143.912 8.36832 144.397 8.85384C144.883 9.33936 145.155 9.99787 145.155 10.6845V11.0004C146.603 8.77559 148.647 7.66321 151.287 7.66321C153.641 7.66321 155.426 8.36136 156.642 9.75766C157.678 11.0004 158.196 12.6832 158.196 14.8061V28.6569H152.879V15.896C152.879 13.4374 151.728 12.2085 149.426 12.2094C148.131 12.2094 147.096 12.5779 146.319 13.3149C145.542 14.0519 145.154 15.0287 145.154 16.2455V28.6634H139.803V10.8567C139.803 10.4939 139.874 10.1346 140.013 9.79944C140.152 9.46428 140.356 9.15978 140.612 8.90335C140.869 8.64693 141.174 8.4436 141.509 8.30499C141.844 8.16639 142.204 8.09522 142.566 8.09556Z" fill="#142359"/>
<path d="M47.5358 1.20898H47.4815C47.4802 0.972092 47.532 0.973387 47.5358 1.20898Z" fill="#142359"/>
<path d="M180 3.32419V28.6298H174.645V26.3399C173.403 28.1521 171.527 29.0583 169.018 29.0583C166.302 29.0583 164.116 27.92 162.46 25.6434C161.038 23.7026 160.326 21.2837 160.325 18.3866C160.325 14.9459 161.231 12.2276 163.044 10.2315C164.62 8.49948 166.599 7.63305 168.98 7.63218C171.49 7.63218 173.378 8.58923 174.646 10.5033V3.7203C174.646 3.34263 174.72 2.96867 174.865 2.61977C175.009 2.27088 175.221 1.95388 175.488 1.68689C175.756 1.4199 176.073 1.20816 176.422 1.06375C176.771 0.919345 177.145 0.845106 177.522 0.845276C178.179 0.845619 178.81 1.10694 179.274 1.57179C179.739 2.03664 180 2.66696 180 3.32419ZM170.183 12.0204C168.836 12.0204 167.749 12.6025 166.922 13.7667C166.094 14.9308 165.68 16.4575 165.68 18.3465C165.68 20.2088 166.088 21.7156 166.904 22.8668C167.719 24.018 168.812 24.5936 170.183 24.5936C171.553 24.5936 172.646 24.0245 173.461 22.8862C174.277 21.748 174.684 20.2347 174.683 18.3465C174.683 16.4316 174.27 14.8985 173.442 13.7473C172.614 12.596 171.528 12.0204 170.183 12.0204Z" fill="#142359"/>
<path d="M23.3717 28.714L23.294 28.8111L4.76236 28.7645C2.88279 28.7645 1.49123 27.9878 0.933313 26.6454L0.893185 26.6079V26.5431C0.834029 26.3884 0.786012 26.2296 0.749498 26.0681C0.252259 24.3835 -0.000156772 22.6362 7.305e-08 20.8798C7.305e-08 10.761 8.23154 2.52942 18.3504 2.52942C18.8799 2.52942 19.4158 2.55272 19.9426 2.59932C20.5934 2.66135 21.1979 2.96328 21.6384 3.44636C22.0788 3.92943 22.3239 4.55911 22.3257 5.21286C22.3233 5.86576 22.0624 6.49113 21.6 6.95208C21.1376 7.41303 20.5114 7.67201 19.8585 7.67235C19.7834 7.67235 19.7057 7.67235 19.6216 7.6607C19.1445 7.61502 18.6653 7.59514 18.186 7.60115C11.0379 7.69306 5.15717 13.5803 5.07562 20.7271C5.06275 21.7943 5.1788 22.8592 5.42124 23.8985H20.9199C22.1833 23.8985 23.2823 24.5548 23.7898 25.6124C24.2765 26.6169 24.1199 27.7819 23.3717 28.714Z" fill="#142359"/>
</svg>
