<svg width="9" height="14" viewBox="0 0 9 14" fill="none" xmlns="http://www.w3.org/2000/svg">
<path fill-rule="evenodd" clip-rule="evenodd" d="M4.5 2.29915e-07C4.36741 2.28334e-07 4.24025 0.0526749 4.1465 0.146437C4.05274 0.240199 4.00007 0.367369 4.00007 0.499968L4.00007 12.2922L0.854512 9.14542C0.80803 9.09893 0.752849 9.06206 0.692118 9.0369C0.631387 9.01174 0.566296 8.99879 0.500561 8.99879C0.434827 8.99879 0.369736 9.01174 0.309005 9.0369C0.248274 9.06206 0.193092 9.09893 0.146611 9.14542C0.10013 9.1919 0.0632586 9.24709 0.0381031 9.30782C0.0129475 9.36856 5.44531e-08 9.43365 5.36692e-08 9.49939C5.28853e-08 9.56513 0.0129475 9.63023 0.0381031 9.69097C0.0632586 9.7517 0.10013 9.80689 0.146611 9.85337L4.14605 13.8531C4.19249 13.8997 4.24766 13.9366 4.30839 13.9618C4.36913 13.987 4.43424 14 4.5 14C4.56576 14 4.63087 13.987 4.69161 13.9618C4.75234 13.9366 4.80751 13.8997 4.85395 13.8531L8.85339 9.85337C8.89987 9.80689 8.93674 9.7517 8.9619 9.69097C8.98705 9.63023 9 9.56513 9 9.49939C9 9.43365 8.98705 9.36856 8.9619 9.30782C8.93674 9.24709 8.89987 9.1919 8.85339 9.14542C8.80691 9.09893 8.75173 9.06206 8.691 9.0369C8.63027 9.01174 8.56517 8.99879 8.49944 8.99879C8.4337 8.99879 8.36861 9.01174 8.30788 9.0369C8.24715 9.06206 8.19197 9.09893 8.14549 9.14542L4.99993 12.2922L4.99993 0.499968C4.99993 0.367369 4.94726 0.240199 4.8535 0.146437C4.75975 0.0526749 4.63259 2.31496e-07 4.5 2.29915e-07Z" fill="white"/>
</svg>
